<?xml version="1.0" standalone="no"?>
<!DOCTYPE svg PUBLIC "-//W3C//DTD SVG 20010904//EN"
 "http://www.w3.org/TR/2001/REC-SVG-20010904/DTD/svg10.dtd">
<svg version="1.0" xmlns="http://www.w3.org/2000/svg"
 width="500.000000pt" height="500.000000pt" viewBox="0 0 500.000000 500.000000"
 preserveAspectRatio="xMidYMid meet">
<metadata>
Created by potrace 1.14, written by Peter Selinger 2001-2017
</metadata>
<g transform="translate(0.000000,500.000000) scale(0.100000,-0.100000)"
fill="#000000" stroke="none">
<path d="M1953 3704 c-106 -51 -168 -152 -167 -274 0 -133 69 -236 190 -285
l59 -24 3 -140 3 -140 -28 -7 c-130 -28 -240 -90 -338 -189 -90 -90 -135 -160
-171 -264 -56 -161 -55 -408 2 -555 7 -18 3 -19 -97 -13 -192 11 -337 75 -469
207 -123 123 -180 256 -180 423 0 120 0 121 68 87 264 -134 586 35 632 332 19
125 -21 168 -155 168 -41 0 -75 2 -75 5 0 3 20 33 45 67 60 83 62 125 7 177
-74 71 -225 106 -344 82 -130 -27 -261 -129 -314 -245 -64 -140 -52 -309 32
-435 l26 -40 -16 -70 c-31 -134 -12 -277 53 -416 95 -202 266 -347 491 -416
62 -19 98 -23 210 -24 114 0 137 -3 147 -17 11 -14 5 -24 -41 -72 -117 -120
-205 -293 -176 -347 16 -29 70 -23 86 11 7 14 28 59 47 100 34 72 136 200 159
200 6 0 37 -25 69 -55 66 -61 188 -125 289 -152 57 -16 117 -18 500 -18 387 0
442 2 500 18 92 25 194 74 258 124 l54 42 39 -47 c36 -43 74 -112 113 -204 13
-32 21 -38 45 -38 39 0 55 22 48 68 -9 56 -80 190 -130 247 l-44 50 30 46 31
46 136 -5 c154 -5 256 13 376 68 207 93 376 295 430 510 23 93 15 272 -17 357
l-23 63 22 38 c49 89 64 212 37 315 -22 83 -50 133 -113 199 -62 65 -143 111
-230 129 -119 24 -270 -11 -344 -82 -54 -51 -53 -90 7 -176 25 -35 45 -66 45
-68 0 -3 -35 -5 -77 -5 -132 0 -169 -41 -152 -169 44 -317 419 -483 682 -302
l45 31 12 -33 c17 -48 24 -174 12 -237 -46 -246 -238 -447 -492 -516 -65 -18
-281 -27 -295 -12 -4 4 0 35 9 70 23 86 31 247 17 342 -24 169 -83 288 -206
412 -66 66 -98 89 -175 128 -52 25 -124 52 -160 60 l-65 13 -3 139 -3 140 43
11 c82 22 162 101 194 190 18 52 17 150 -2 206 -21 62 -96 144 -159 173 -73
35 -191 34 -262 -2 -58 -28 -111 -82 -145 -146 -19 -35 -23 -59 -23 -128 0
-73 4 -92 27 -135 41 -79 148 -165 203 -165 13 0 15 -21 15 -140 l0 -140 -335
0 -335 0 0 140 c0 128 2 140 18 140 32 0 120 50 153 88 140 159 93 400 -95
488 -73 34 -190 33 -263 -2z m227 -96 c132 -67 146 -247 27 -342 -33 -27 -48
-31 -110 -34 -66 -3 -76 -1 -118 26 -65 42 -93 101 -87 187 3 53 9 71 34 102
67 82 165 106 254 61z m801 -13 c58 -41 84 -94 84 -172 0 -52 -5 -68 -31 -105
-42 -60 -95 -88 -168 -88 -116 0 -199 83 -199 199 0 82 40 147 116 185 52 27
146 17 198 -19z m1122 -324 c52 -20 116 -71 147 -116 44 -64 61 -120 61 -203
0 -127 -70 -240 -186 -300 -73 -37 -188 -42 -270 -11 -105 39 -196 154 -212
264 l-6 45 167 0 c91 0 166 4 166 9 0 5 -40 66 -90 135 -49 70 -90 131 -90
136 0 16 77 50 132 58 57 8 135 1 181 -17z m-2927 -44 l44 -22 -95 -135 c-52
-73 -95 -137 -95 -142 0 -4 75 -8 166 -8 l167 0 -7 -47 c-15 -111 -105 -222
-214 -263 -79 -30 -195 -25 -267 12 -63 33 -120 89 -153 153 -24 44 -27 61
-27 150 0 117 18 166 89 238 99 102 264 129 392 64z m1834 -505 c197 -65 351
-226 400 -416 14 -58 20 -112 20 -197 0 -147 -11 -201 -62 -308 -77 -162 -246
-292 -418 -321 -43 -7 -208 -10 -490 -8 l-425 3 -66 26 c-101 39 -158 76 -229
148 -67 68 -114 145 -146 241 -16 45 -19 85 -19 220 0 147 3 172 24 230 76
213 258 367 473 399 35 5 245 8 468 7 385 -2 408 -3 470 -24z"/>
</g>
</svg>
